<?xml version="1.0" standalone="no"?>
<!DOCTYPE svg PUBLIC "-//W3C//DTD SVG 20010904//EN"
 "http://www.w3.org/TR/2001/REC-SVG-20010904/DTD/svg10.dtd">
<svg version="1.0" xmlns="http://www.w3.org/2000/svg"
 width="735.000000pt" height="735.000000pt" viewBox="0 0 735.000000 735.000000"
 preserveAspectRatio="xMidYMid meet">
<metadata>
Created by potrace 1.14, written by Peter Selinger 2001-2017
</metadata>
<g transform="translate(0.000000,735.000000) scale(0.100000,-0.100000)"
fill="#000000" stroke="none">
<path d="M943 6829 c2 -42 -1 -70 -7 -73 -7 -3 -8 -7 -1 -13 12 -10 14 -503 2
-503 -5 0 -5 -5 -1 -11 11 -18 11 -162 1 -176 -5 -7 -6 -13 -1 -13 5 0 9 -107
8 -237 l-1 -237 26 -25 c15 -14 62 -57 105 -96 43 -38 94 -85 112 -103 19 -19
34 -32 34 -29 0 3 20 -14 44 -36 24 -23 61 -58 83 -77 23 -19 69 -60 103 -90
35 -30 68 -59 74 -65 16 -14 36 -17 36 -5 0 5 4 10 9 10 9 0 83 65 173 153 21
20 41 37 43 37 4 0 61 52 167 153 28 26 55 47 60 47 5 0 6 5 3 10 -3 6 -2 10
3 10 15 0 82 65 82 79 0 8 3 11 7 8 3 -4 13 -1 21 5 10 9 60 13 156 13 78 1
147 4 154 9 6 4 12 3 12 -3 0 -10 25 -9 36 1 3 4 18 2 32 -3 18 -7 28 -7 30 0
2 6 8 8 14 5 17 -11 282 -11 296 -1 6 5 12 6 12 1 0 -5 417 -10 948 -11 521
-1 958 -3 972 -3 23 0 20 -5 -30 -51 -69 -64 -139 -123 -151 -127 -5 -2 -9
-10 -9 -18 0 -9 -4 -13 -8 -10 -4 2 -37 -22 -72 -55 -35 -32 -67 -59 -71 -59
-5 0 -14 -9 -22 -20 -8 -11 -16 -17 -19 -14 -4 3 -9 -4 -13 -15 -3 -12 -10
-19 -15 -16 -5 3 -12 0 -17 -7 -7 -11 -40 -41 -202 -183 -19 -16 -50 -45 -69
-62 -18 -18 -37 -33 -41 -33 -4 0 -16 -10 -27 -22 -11 -13 -44 -43 -73 -68
-30 -25 -69 -60 -87 -77 -19 -18 -37 -33 -39 -33 -5 0 -67 -55 -136 -121 -21
-20 -40 -35 -42 -32 -3 2 -16 -10 -31 -27 -14 -17 -26 -29 -26 -26 0 3 -18
-13 -40 -34 -23 -22 -43 -40 -47 -40 -8 0 -53 -53 -53 -62 0 -5 5 -8 10 -8 6
0 10 -6 11 -12 0 -7 22 -31 47 -53 26 -22 65 -61 87 -87 22 -25 46 -47 53 -47
6 -1 12 -4 12 -8 0 -13 129 -141 135 -135 3 3 5 1 5 -5 0 -16 223 -238 235
-235 5 2 7 0 3 -3 -9 -9 283 -305 300 -305 7 0 17 9 24 20 7 11 16 20 20 20 6
0 68 52 115 98 13 12 26 22 28 22 3 0 13 8 23 17 10 10 42 38 71 63 29 25 68
59 86 75 19 17 59 50 89 75 30 25 55 51 56 57 0 7 4 12 9 10 4 -1 29 17 55 41
26 23 52 42 57 42 6 0 7 5 4 10 -3 6 -1 10 5 10 6 0 17 6 24 13 7 6 41 37 76
67 35 30 79 70 97 87 19 18 38 33 42 33 3 0 14 8 22 18 9 9 45 42 80 72 35 30
71 63 81 72 10 10 18 15 18 12 0 -3 15 11 34 30 18 20 36 36 39 36 4 0 23 16
43 35 19 19 40 35 45 35 6 0 7 5 4 10 -3 6 -2 10 3 10 11 0 64 43 95 77 11 12
24 20 28 18 4 -3 11 4 14 16 4 11 9 18 12 15 3 -2 23 12 45 32 85 77 97 88
130 114 19 15 48 40 65 55 73 67 92 84 97 84 3 0 28 22 55 49 28 27 51 47 51
45 0 -2 19 13 43 34 23 22 60 55 82 75 l39 36 1 392 c0 216 4 399 8 406 5 6 5
12 0 12 -4 0 -8 190 -8 423 0 232 -1 433 -3 447 l-4 26 -2704 0 -2704 1 3 -68z"/>
<path d="M2903 3908 c-21 -18 -50 -44 -64 -58 -15 -14 -48 -43 -74 -65 -25
-22 -59 -51 -74 -65 -30 -27 -110 -95 -151 -130 -14 -12 -47 -40 -73 -63 -78
-67 -92 -80 -147 -127 -29 -25 -65 -56 -80 -70 -26 -24 -45 -40 -169 -148 -30
-26 -65 -57 -78 -69 -13 -13 -26 -23 -28 -23 -3 0 -20 -15 -39 -32 -19 -18
-51 -46 -71 -63 -42 -35 -138 -120 -172 -152 -13 -13 -26 -23 -28 -23 -5 0
-76 -63 -127 -112 -15 -14 -28 -24 -28 -22 0 3 -10 -5 -23 -18 -24 -24 -97
-88 -177 -155 -24 -21 -61 -54 -82 -74 -21 -20 -38 -35 -38 -32 0 2 -6 -2 -13
-9 -8 -7 -40 -35 -72 -63 -32 -27 -79 -69 -104 -92 l-46 -41 -1 -861 0 -860
2693 0 c1481 0 2698 2 2705 4 10 4 13 145 13 676 0 659 0 671 -20 685 -11 8
-49 40 -84 72 -35 31 -76 68 -91 82 -16 14 -52 46 -82 71 -29 26 -68 61 -85
78 -18 17 -33 29 -33 26 0 -3 -18 12 -39 33 -72 69 -116 108 -148 132 l-33 23
-57 -54 c-32 -30 -73 -68 -91 -85 -18 -16 -54 -49 -80 -72 -26 -24 -78 -71
-116 -105 -38 -34 -91 -83 -118 -109 -28 -27 -52 -48 -55 -48 -3 0 -19 -15
-35 -32 l-31 -33 -753 0 c-496 0 -754 3 -754 10 0 6 -3 6 -8 0 -10 -14 -702
-14 -702 0 0 7 -3 7 -8 0 -8 -12 -162 -14 -162 -2 0 5 -5 5 -12 1 -16 -10
-268 -11 -268 -1 0 4 5 7 11 7 5 0 7 5 4 10 -3 5 -3 10 2 10 4 0 34 24 66 54
32 29 75 67 95 82 20 16 51 44 70 61 19 18 36 33 39 33 2 0 17 12 33 28 15 15
54 50 85 77 32 28 63 55 69 61 6 6 49 44 96 85 133 116 151 132 182 161 15 15
28 25 28 22 0 -3 10 5 23 18 12 13 69 64 127 113 58 50 114 99 126 110 11 11
47 43 80 70 32 28 74 64 94 82 83 75 105 93 111 93 4 0 9 7 13 15 3 9 -60 80
-188 209 -106 108 -191 198 -188 201 3 3 1 5 -5 5 -13 0 -201 188 -195 195 3
3 1 5 -5 5 -5 0 -68 59 -139 131 -168 170 -166 169 -176 169 -4 0 -24 -15 -45
-32z"/>
</g>
</svg>
